<mxfile host="app.diagrams.net" agent="Mozilla/5.0 (Macintosh; Intel Mac OS X 10_15_7) AppleWebKit/537.36 (KHTML, like Gecko) Chrome/131.0.0.0 Safari/537.36" version="24.8.8">
  <diagram name="Page-1" id="nx73mB6qmI1hjfG_eT3p">
    <mxGraphModel dx="1434" dy="761" grid="1" gridSize="10" guides="1" tooltips="1" connect="1" arrows="1" fold="1" page="1" pageScale="1" pageWidth="827" pageHeight="1169" math="0" shadow="0">
      <root>
        <mxCell id="0" />
        <mxCell id="1" parent="0" />
        <mxCell id="bS38P3y2hA0NhJqz4esw-6" value="" style="rounded=0;whiteSpace=wrap;html=1;" vertex="1" parent="1">
          <mxGeometry x="140" y="280" width="450" height="210" as="geometry" />
        </mxCell>
        <mxCell id="bS38P3y2hA0NhJqz4esw-4" style="edgeStyle=orthogonalEdgeStyle;rounded=0;orthogonalLoop=1;jettySize=auto;html=1;entryX=0;entryY=0.5;entryDx=0;entryDy=0;" edge="1" parent="1" source="bS38P3y2hA0NhJqz4esw-1" target="bS38P3y2hA0NhJqz4esw-3">
          <mxGeometry relative="1" as="geometry" />
        </mxCell>
        <mxCell id="bS38P3y2hA0NhJqz4esw-1" value="" style="sketch=0;outlineConnect=0;fontColor=#232F3E;gradientColor=none;fillColor=#232F3D;strokeColor=none;dashed=0;verticalLabelPosition=bottom;verticalAlign=top;align=center;html=1;fontSize=12;fontStyle=0;aspect=fixed;pointerEvents=1;shape=mxgraph.aws4.client;" vertex="1" parent="1">
          <mxGeometry x="10" y="327" width="78" height="76" as="geometry" />
        </mxCell>
        <mxCell id="bS38P3y2hA0NhJqz4esw-10" style="edgeStyle=orthogonalEdgeStyle;rounded=0;orthogonalLoop=1;jettySize=auto;html=1;entryX=0;entryY=0.5;entryDx=0;entryDy=0;" edge="1" parent="1" source="bS38P3y2hA0NhJqz4esw-3" target="bS38P3y2hA0NhJqz4esw-9">
          <mxGeometry relative="1" as="geometry" />
        </mxCell>
        <mxCell id="bS38P3y2hA0NhJqz4esw-3" value="Generate hashed IDs" style="rounded=0;whiteSpace=wrap;html=1;" vertex="1" parent="1">
          <mxGeometry x="178" y="343.5" width="90" height="43" as="geometry" />
        </mxCell>
        <mxCell id="bS38P3y2hA0NhJqz4esw-5" value="Rate limiting service" style="text;html=1;align=center;verticalAlign=middle;resizable=0;points=[];autosize=1;strokeColor=none;fillColor=none;" vertex="1" parent="1">
          <mxGeometry x="305" y="500" width="130" height="30" as="geometry" />
        </mxCell>
        <mxCell id="bS38P3y2hA0NhJqz4esw-8" value="Client ID builder&lt;div&gt;and Identifier&lt;/div&gt;&lt;div&gt;based on unique client API key&lt;/div&gt;&lt;div&gt;and type of endpoint hit&lt;/div&gt;&lt;div&gt;&lt;br&gt;&lt;/div&gt;" style="text;html=1;align=center;verticalAlign=middle;resizable=0;points=[];autosize=1;strokeColor=none;fillColor=none;" vertex="1" parent="1">
          <mxGeometry x="130" y="379" width="190" height="90" as="geometry" />
        </mxCell>
        <mxCell id="bS38P3y2hA0NhJqz4esw-13" style="edgeStyle=orthogonalEdgeStyle;rounded=0;orthogonalLoop=1;jettySize=auto;html=1;entryX=0.5;entryY=0;entryDx=0;entryDy=0;" edge="1" parent="1" source="bS38P3y2hA0NhJqz4esw-9" target="bS38P3y2hA0NhJqz4esw-12">
          <mxGeometry relative="1" as="geometry" />
        </mxCell>
        <mxCell id="bS38P3y2hA0NhJqz4esw-24" style="edgeStyle=orthogonalEdgeStyle;rounded=0;orthogonalLoop=1;jettySize=auto;html=1;entryX=0;entryY=0.5;entryDx=0;entryDy=0;" edge="1" parent="1" source="bS38P3y2hA0NhJqz4esw-9" target="bS38P3y2hA0NhJqz4esw-22">
          <mxGeometry relative="1" as="geometry" />
        </mxCell>
        <mxCell id="bS38P3y2hA0NhJqz4esw-9" value="Decision Maker" style="rounded=0;whiteSpace=wrap;html=1;" vertex="1" parent="1">
          <mxGeometry x="325" y="343" width="90" height="43" as="geometry" />
        </mxCell>
        <mxCell id="bS38P3y2hA0NhJqz4esw-14" style="edgeStyle=orthogonalEdgeStyle;rounded=0;orthogonalLoop=1;jettySize=auto;html=1;exitX=0;exitY=0.5;exitDx=0;exitDy=0;" edge="1" parent="1" source="bS38P3y2hA0NhJqz4esw-12" target="bS38P3y2hA0NhJqz4esw-1">
          <mxGeometry relative="1" as="geometry">
            <Array as="points">
              <mxPoint x="350" y="460" />
              <mxPoint x="49" y="460" />
            </Array>
          </mxGeometry>
        </mxCell>
        <mxCell id="bS38P3y2hA0NhJqz4esw-30" style="edgeStyle=orthogonalEdgeStyle;rounded=0;orthogonalLoop=1;jettySize=auto;html=1;" edge="1" parent="1" source="bS38P3y2hA0NhJqz4esw-12" target="bS38P3y2hA0NhJqz4esw-28">
          <mxGeometry relative="1" as="geometry" />
        </mxCell>
        <mxCell id="bS38P3y2hA0NhJqz4esw-12" value="" style="rhombus;whiteSpace=wrap;html=1;" vertex="1" parent="1">
          <mxGeometry x="350" y="425" width="40" height="40" as="geometry" />
        </mxCell>
        <mxCell id="bS38P3y2hA0NhJqz4esw-15" value="Request rejected" style="text;html=1;align=center;verticalAlign=middle;resizable=0;points=[];autosize=1;strokeColor=none;fillColor=none;" vertex="1" parent="1">
          <mxGeometry x="180" y="454" width="110" height="30" as="geometry" />
        </mxCell>
        <mxCell id="bS38P3y2hA0NhJqz4esw-21" style="edgeStyle=orthogonalEdgeStyle;rounded=0;orthogonalLoop=1;jettySize=auto;html=1;" edge="1" parent="1" source="bS38P3y2hA0NhJqz4esw-16" target="bS38P3y2hA0NhJqz4esw-19">
          <mxGeometry relative="1" as="geometry" />
        </mxCell>
        <mxCell id="bS38P3y2hA0NhJqz4esw-16" value="Rule&lt;div&gt;Database&lt;/div&gt;" style="shape=cylinder3;whiteSpace=wrap;html=1;boundedLbl=1;backgroundOutline=1;size=15;" vertex="1" parent="1">
          <mxGeometry x="160" y="130" width="60" height="80" as="geometry" />
        </mxCell>
        <mxCell id="bS38P3y2hA0NhJqz4esw-18" value="&lt;div style=&quot;text-align: justify;&quot;&gt;&lt;span style=&quot;background-color: initial;&quot;&gt;Rule data base per client&lt;/span&gt;&lt;/div&gt;&lt;div style=&quot;text-align: justify;&quot;&gt;this defines that how much limit per client is available&lt;/div&gt;" style="text;html=1;align=center;verticalAlign=middle;resizable=0;points=[];autosize=1;strokeColor=none;fillColor=none;" vertex="1" parent="1">
          <mxGeometry x="85" y="80" width="300" height="40" as="geometry" />
        </mxCell>
        <mxCell id="bS38P3y2hA0NhJqz4esw-19" value="Rule Cache" style="shape=cylinder3;whiteSpace=wrap;html=1;boundedLbl=1;backgroundOutline=1;size=15;" vertex="1" parent="1">
          <mxGeometry x="340" y="130" width="60" height="80" as="geometry" />
        </mxCell>
        <mxCell id="bS38P3y2hA0NhJqz4esw-20" style="edgeStyle=orthogonalEdgeStyle;rounded=0;orthogonalLoop=1;jettySize=auto;html=1;entryX=0.5;entryY=1;entryDx=0;entryDy=0;entryPerimeter=0;" edge="1" parent="1" source="bS38P3y2hA0NhJqz4esw-9" target="bS38P3y2hA0NhJqz4esw-19">
          <mxGeometry relative="1" as="geometry" />
        </mxCell>
        <mxCell id="bS38P3y2hA0NhJqz4esw-26" style="edgeStyle=orthogonalEdgeStyle;rounded=0;orthogonalLoop=1;jettySize=auto;html=1;" edge="1" parent="1" source="bS38P3y2hA0NhJqz4esw-22" target="bS38P3y2hA0NhJqz4esw-25">
          <mxGeometry relative="1" as="geometry" />
        </mxCell>
        <mxCell id="bS38P3y2hA0NhJqz4esw-22" value="Decision Maker" style="rounded=0;whiteSpace=wrap;html=1;" vertex="1" parent="1">
          <mxGeometry x="480" y="343.5" width="90" height="43" as="geometry" />
        </mxCell>
        <mxCell id="bS38P3y2hA0NhJqz4esw-25" value="Servers" style="rounded=0;whiteSpace=wrap;html=1;" vertex="1" parent="1">
          <mxGeometry x="687" y="250" width="100" height="240" as="geometry" />
        </mxCell>
        <mxCell id="bS38P3y2hA0NhJqz4esw-28" value="Queue" style="sketch=0;outlineConnect=0;fontColor=#232F3E;gradientColor=none;strokeColor=#232F3E;fillColor=#ffffff;dashed=0;verticalLabelPosition=bottom;verticalAlign=top;align=center;html=1;fontSize=12;fontStyle=0;aspect=fixed;shape=mxgraph.aws4.resourceIcon;resIcon=mxgraph.aws4.queue;" vertex="1" parent="1">
          <mxGeometry x="510" y="417" width="55" height="55" as="geometry" />
        </mxCell>
        <mxCell id="bS38P3y2hA0NhJqz4esw-31" value="This will maintain&lt;div&gt;count of requests and allowed limit&lt;/div&gt;" style="text;html=1;align=left;verticalAlign=middle;resizable=0;points=[];autosize=1;strokeColor=none;fillColor=none;" vertex="1" parent="1">
          <mxGeometry x="414" y="150" width="210" height="40" as="geometry" />
        </mxCell>
      </root>
    </mxGraphModel>
  </diagram>
</mxfile>
